<svg style="display: none;"><symbol viewBox="0 0 24 28" id="icon-bars"><title>bars</title><path d="M24 21v2q0 .406-.297.703T23 24H1q-.406 0-.703-.297T0 23v-2q0-.406.297-.703T1 20h22q.406 0 .703.297T24 21zm0-8v2q0 .406-.297.703T23 16H1q-.406 0-.703-.297T0 15v-2q0-.406.297-.703T1 12h22q.406 0 .703.297T24 13zm0-8v2q0 .406-.297.703T23 8H1q-.406 0-.703-.297T0 7V5q0-.406.297-.703T1 4h22q.406 0 .703.297T24 5z"/></symbol><symbol viewBox="0 0 30 32" id="icon-calendar"><title>calendar</title> <path d="M2.286 29.714h5.143v-5.143h-5.143v5.143zM8.571 29.714h5.714v-5.143h-5.714v5.143zM2.286 23.429h5.143v-5.714h-5.143v5.714zM8.571 23.429h5.714v-5.714h-5.714v5.714zM2.286 16.571h5.143v-5.143h-5.143v5.143zM15.429 29.714h5.714v-5.143h-5.714v5.143zM8.571 16.571h5.714v-5.143h-5.714v5.143zM22.286 29.714h5.143v-5.143h-5.143v5.143zM15.429 23.429h5.714v-5.714h-5.714v5.714zM9.143 8v-5.143q0-0.232-0.17-0.402t-0.402-0.17h-1.143q-0.232 0-0.402 0.17t-0.17 0.402v5.143q0 0.232 0.17 0.402t0.402 0.17h1.143q0.232 0 0.402-0.17t0.17-0.402zM22.286 23.429h5.143v-5.714h-5.143v5.714zM15.429 16.571h5.714v-5.143h-5.714v5.143zM22.286 16.571h5.143v-5.143h-5.143v5.143zM22.857 8v-5.143q0-0.232-0.17-0.402t-0.402-0.17h-1.143q-0.232 0-0.402 0.17t-0.17 0.402v5.143q0 0.232 0.17 0.402t0.402 0.17h1.143q0.232 0 0.402-0.17t0.17-0.402zM29.714 6.857v22.857q0 0.929-0.679 1.607t-1.607 0.679h-25.143q-0.929 0-1.607-0.679t-0.679-1.607v-22.857q0-0.929 0.679-1.607t1.607-0.679h2.286v-1.714q0-1.179 0.839-2.018t2.018-0.839h1.143q1.179 0 2.018 0.839t0.839 2.018v1.714h6.857v-1.714q0-1.179 0.839-2.018t2.018-0.839h1.143q1.179 0 2.018 0.839t0.839 2.018v1.714h2.286q0.929 0 1.607 0.679t0.679 1.607z"/> </symbol><symbol viewBox="0 0 27 32" id="icon-dribbble"><title>dribbble</title> <path d="M18.286 26.786q-0.75-4.304-2.5-8.893h-0.036l-0.036 0.018q-0.286 0.107-0.768 0.295t-1.804 0.875-2.446 1.464-2.339 2.045-1.839 2.643l-0.268-0.196q3.286 2.679 7.464 2.679 2.357 0 4.571-0.929zM14.982 15.946q-0.375-0.875-0.946-1.982-5.554 1.661-12.018 1.661-0.018 0.125-0.018 0.375 0 2.214 0.786 4.223t2.214 3.598q0.893-1.589 2.205-2.973t2.545-2.223 2.33-1.446 1.777-0.857l0.661-0.232q0.071-0.018 0.232-0.063t0.232-0.080zM13.071 12.161q-2.143-3.804-4.357-6.75-2.464 1.161-4.179 3.321t-2.286 4.857q5.393 0 10.821-1.429zM25.286 17.857q-3.75-1.071-7.304-0.518 1.554 4.268 2.286 8.375 1.982-1.339 3.304-3.384t1.714-4.473zM10.911 4.625q-0.018 0-0.036 0.018 0.018-0.018 0.036-0.018zM21.446 7.214q-3.304-2.929-7.732-2.929-1.357 0-2.768 0.339 2.339 3.036 4.393 6.821 1.232-0.464 2.321-1.080t1.723-1.098 1.17-1.018 0.67-0.723zM25.429 15.875q-0.054-4.143-2.661-7.321l-0.018 0.018q-0.161 0.214-0.339 0.438t-0.777 0.795-1.268 1.080-1.786 1.161-2.348 1.152q0.446 0.946 0.786 1.696 0.036 0.107 0.116 0.313t0.134 0.295q0.643-0.089 1.33-0.125t1.313-0.036 1.232 0.027 1.143 0.071 1.009 0.098 0.857 0.116 0.652 0.107 0.446 0.080zM27.429 16q0 3.732-1.839 6.884t-4.991 4.991-6.884 1.839-6.884-1.839-4.991-4.991-1.839-6.884 1.839-6.884 4.991-4.991 6.884-1.839 6.884 1.839 4.991 4.991 1.839 6.884z"/> </symbol><symbol viewBox="0 0 24 28" id="icon-facebook-square"><title>facebook-square</title><path d="M19.5 2q1.859 0 3.18 1.32T24 6.5v15q0 1.859-1.32 3.18T19.5 26h-2.938v-9.297h3.109l.469-3.625h-3.578v-2.312q0-.875.367-1.313t1.43-.438l1.906-.016V5.765q-.984-.141-2.781-.141-2.125 0-3.398 1.25t-1.273 3.531v2.672H9.688v3.625h3.125v9.297H4.5q-1.859 0-3.18-1.32T0 21.499v-15q0-1.859 1.32-3.18t3.18-1.32h15z"/></symbol><symbol viewBox="0 0 27 32" id="icon-flickr"><title>flickr</title> <path d="M22.286 2.286q2.125 0 3.634 1.509t1.509 3.634v17.143q0 2.125-1.509 3.634t-3.634 1.509h-17.143q-2.125 0-3.634-1.509t-1.509-3.634v-17.143q0-2.125 1.509-3.634t3.634-1.509h17.143zM12.464 16q0-1.571-1.107-2.679t-2.679-1.107-2.679 1.107-1.107 2.679 1.107 2.679 2.679 1.107 2.679-1.107 1.107-2.679zM22.536 16q0-1.571-1.107-2.679t-2.679-1.107-2.679 1.107-1.107 2.679 1.107 2.679 2.679 1.107 2.679-1.107 1.107-2.679z"/> </symbol><symbol viewBox="0 0 27 32" id="icon-google-plus-square"><title>google-plus-square</title> <path d="M16.375 16.161q0-0.464-0.107-1.143h-6.464v2.357h3.875q-0.054 0.429-0.295 0.893t-0.67 0.946-1.188 0.795-1.723 0.313q-1.768 0-3.018-1.268t-1.25-3.054 1.25-3.054 3.018-1.268q1.643 0 2.732 1.054l1.857-1.804q-1.929-1.786-4.589-1.786-2.857 0-4.857 2.009t-2 4.848 2 4.848 4.857 2.009q2.946 0 4.759-1.875t1.812-4.821zM22.536 16.982h1.946v-1.964h-1.946v-1.964h-1.964v1.964h-1.964v1.964h1.964v1.964h1.964v-1.964zM27.429 7.429v17.143q0 2.125-1.509 3.634t-3.634 1.509h-17.143q-2.125 0-3.634-1.509t-1.509-3.634v-17.143q0-2.125 1.509-3.634t3.634-1.509h17.143q2.125 0 3.634 1.509t1.509 3.634z"/> </symbol><symbol viewBox="0 0 27 32" id="icon-instagram"><title>instagram</title> <path d="M18.286 16q0-1.893-1.339-3.232t-3.232-1.339-3.232 1.339-1.339 3.232 1.339 3.232 3.232 1.339 3.232-1.339 1.339-3.232zM20.75 16q0 2.929-2.054 4.982t-4.982 2.054-4.982-2.054-2.054-4.982 2.054-4.982 4.982-2.054 4.982 2.054 2.054 4.982zM22.679 8.679q0 0.679-0.482 1.161t-1.161 0.482-1.161-0.482-0.482-1.161 0.482-1.161 1.161-0.482 1.161 0.482 0.482 1.161zM13.714 4.75q-0.125 0-1.366-0.009t-1.884 0-1.723 0.054-1.839 0.179-1.277 0.33q-0.893 0.357-1.571 1.036t-1.036 1.571q-0.196 0.518-0.33 1.277t-0.179 1.839-0.054 1.723 0 1.884 0.009 1.366-0.009 1.366 0 1.884 0.054 1.723 0.179 1.839 0.33 1.277q0.357 0.893 1.036 1.571t1.571 1.036q0.518 0.196 1.277 0.33t1.839 0.179 1.723 0.054 1.884 0 1.366-0.009 1.366 0.009 1.884 0 1.723-0.054 1.839-0.179 1.277-0.33q0.893-0.357 1.571-1.036t1.036-1.571q0.196-0.518 0.33-1.277t0.179-1.839 0.054-1.723 0-1.884-0.009-1.366 0.009-1.366 0-1.884-0.054-1.723-0.179-1.839-0.33-1.277q-0.357-0.893-1.036-1.571t-1.571-1.036q-0.518-0.196-1.277-0.33t-1.839-0.179-1.723-0.054-1.884 0-1.366 0.009zM27.429 16q0 4.089-0.089 5.661-0.179 3.714-2.214 5.75t-5.75 2.214q-1.571 0.089-5.661 0.089t-5.661-0.089q-3.714-0.179-5.75-2.214t-2.214-5.75q-0.089-1.571-0.089-5.661t0.089-5.661q0.179-3.714 2.214-5.75t5.75-2.214q1.571-0.089 5.661-0.089t5.661 0.089q3.714 0.179 5.75 2.214t2.214 5.75q0.089 1.571 0.089 5.661z"/> </symbol><symbol viewBox="0 0 24 28" id="icon-linkedin-square"><title>linkedin-square</title><path d="M3.703 22.094h3.609V11.25H3.703v10.844zM7.547 7.906q-.016-.812-.562-1.344t-1.453-.531-1.477.531-.57 1.344q0 .797.555 1.336t1.445.539h.016q.922 0 1.484-.539t.562-1.336zm9.141 14.188h3.609v-6.219q0-2.406-1.141-3.641T16.14 11q-2.125 0-3.266 1.828h.031V11.25H9.296q.047 1.031 0 10.844h3.609v-6.062q0-.594.109-.875.234-.547.703-.93t1.156-.383q1.813 0 1.813 2.453v5.797zM24 6.5v15q0 1.859-1.32 3.18T19.5 26h-15q-1.859 0-3.18-1.32T0 21.5v-15q0-1.859 1.32-3.18T4.5 2h15q1.859 0 3.18 1.32T24 6.5z"/></symbol><symbol viewBox="0 0 27 32" id="icon-pinterest-square"><title>pinterest-square</title> <path d="M22.286 2.286q2.125 0 3.634 1.509t1.509 3.634v17.143q0 2.125-1.509 3.634t-3.634 1.509h-12.946q1.518-2.179 1.929-3.75 0.161-0.607 0.946-3.732 0.375 0.696 1.313 1.196t2.009 0.5q3.232 0 5.277-2.634t2.045-6.67q0-1.5-0.625-2.902t-1.723-2.482-2.723-1.732-3.518-0.652q-1.857 0-3.473 0.509t-2.732 1.366-1.92 1.955-1.188 2.286-0.384 2.366q0 1.821 0.705 3.214t2.080 1.964q0.232 0.089 0.42 0t0.259-0.339q0.179-0.786 0.268-1.089 0.107-0.411-0.196-0.75-0.893-1.107-0.893-2.679 0-2.679 1.848-4.58t4.83-1.902q2.661 0 4.152 1.446t1.491 3.75q0 3-1.205 5.107t-3.098 2.107q-1.071 0-1.732-0.777t-0.411-1.848q0.143-0.607 0.473-1.652t0.527-1.821 0.196-1.33q0-0.875-0.473-1.455t-1.348-0.58q-1.089 0-1.848 1.009t-0.759 2.491q0 1.286 0.429 2.161l-1.75 7.393q-0.429 1.786-0.125 4.536h-3.268q-2.125 0-3.634-1.509t-1.509-3.634v-17.143q0-2.125 1.509-3.634t3.634-1.509h17.143z"/> </symbol><symbol viewBox="0 0 34 32" id="icon-tags"><title>tags</title> <path d="M8 8q0-0.946-0.67-1.616t-1.616-0.67-1.616 0.67-0.67 1.616 0.67 1.616 1.616 0.67 1.616-0.67 0.67-1.616zM27.054 18.286q0 0.946-0.661 1.607l-8.768 8.786q-0.696 0.661-1.625 0.661-0.946 0-1.607-0.661l-12.768-12.786q-0.679-0.661-1.152-1.804t-0.473-2.089v-7.429q0-0.929 0.679-1.607t1.607-0.679h7.429q0.946 0 2.089 0.473t1.821 1.152l12.768 12.75q0.661 0.696 0.661 1.625zM33.911 18.286q0 0.946-0.661 1.607l-8.768 8.786q-0.696 0.661-1.625 0.661-0.643 0-1.054-0.25t-0.946-0.804l8.393-8.393q0.661-0.661 0.661-1.607 0-0.929-0.661-1.625l-12.768-12.75q-0.679-0.679-1.821-1.152t-2.089-0.473h4q0.946 0 2.089 0.473t1.821 1.152l12.768 12.75q0.661 0.696 0.661 1.625z"/> </symbol><symbol viewBox="0 0 27 32" id="icon-tumblr-square"><title>tumblr-square</title> <path d="M20.286 26.089l-1.107-3.268q-0.786 0.393-1.839 0.393-0.643 0.018-1.107-0.188t-0.688-0.563-0.313-0.723-0.089-0.777v-7.107h4.589v-3.464h-4.571v-5.821h-3.357q-0.143 0-0.161 0.179-0.089 0.786-0.313 1.554t-0.696 1.696-1.375 1.696-2.116 1.214v2.946h2.321v7.464q0 1.018 0.384 2.054t1.161 1.982 2.161 1.527 3.152 0.545q1.232-0.018 2.438-0.446t1.527-0.893zM27.429 7.429v17.143q0 2.125-1.509 3.634t-3.634 1.509h-17.143q-2.125 0-3.634-1.509t-1.509-3.634v-17.143q0-2.125 1.509-3.634t3.634-1.509h17.143q2.125 0 3.634 1.509t1.509 3.634z"/> </symbol><symbol viewBox="0 0 24 28" id="icon-twitter-square"><title>twitter-square</title><path d="M20 9.531q-.875.391-1.891.531 1.062-.625 1.453-1.828-1.016.594-2.094.797Q16.515 8 15.077 8q-1.359 0-2.32.961t-.961 2.32q0 .453.078.75-2.016-.109-3.781-1.016t-3-2.422q-.453.781-.453 1.656 0 1.781 1.422 2.734-.734-.016-1.563-.406v.031q0 1.172.781 2.086t1.922 1.133q-.453.125-.797.125-.203 0-.609-.063.328.984 1.164 1.625t1.898.656q-1.813 1.406-4.078 1.406-.406 0-.781-.047 2.312 1.469 5.031 1.469 1.75 0 3.281-.555t2.625-1.484 1.883-2.141 1.172-2.531.383-2.633q0-.281-.016-.422.984-.703 1.641-1.703zM24 6.5v15q0 1.859-1.32 3.18T19.5 26h-15q-1.859 0-3.18-1.32T0 21.5v-15q0-1.859 1.32-3.18T4.5 2h15q1.859 0 3.18 1.32T24 6.5z"/></symbol><symbol viewBox="0 0 27 32" id="icon-vimeo-square"><title>vimeo-square</title> <path d="M23.071 11.393q0.179-3.857-2.875-3.964-4.125-0.143-5.571 4.661 0.786-0.339 1.464-0.339 1.518 0 1.321 1.714-0.071 1.018-1.321 2.982t-1.875 1.964q-0.768 0-1.464-3.018-0.232-0.964-0.804-4.554-0.536-3.375-2.857-3.161-1.054 0.125-2.929 1.786l-2.893 2.571 0.929 1.196q1.357-0.929 1.554-0.929 1.018 0 1.911 3.196 0.268 0.982 0.804 2.938t0.804 2.938q1.214 3.196 2.929 3.196 2.804 0 6.839-5.25 3.929-5.054 4.036-7.929zM27.429 7.429v17.143q0 2.125-1.509 3.634t-3.634 1.509h-17.143q-2.125 0-3.634-1.509t-1.509-3.634v-17.143q0-2.125 1.509-3.634t3.634-1.509h17.143q2.125 0 3.634 1.509t1.509 3.634z"/> </symbol><symbol viewBox="0 0 27 32" id="icon-youtube-square"><title>youtube-square</title> <path d="M16.411 23.268v-2.804q0-0.893-0.518-0.893-0.304 0-0.589 0.286v4q0.286 0.286 0.589 0.286 0.518 0 0.518-0.875zM19.696 21.089h1.179v-0.607q0-0.911-0.589-0.911t-0.589 0.911v0.607zM9.5 16.339v1.25h-1.429v7.554h-1.321v-7.554h-1.393v-1.25h4.143zM13.089 18.589v6.554h-1.196v-0.714q-0.696 0.804-1.357 0.804-0.589 0-0.75-0.5-0.107-0.286-0.107-0.964v-5.179h1.179v4.821q0 0.429 0.018 0.464 0.018 0.268 0.268 0.268 0.357 0 0.75-0.554v-5h1.196zM17.589 20.571v2.607q0 0.929-0.125 1.304-0.214 0.75-0.946 0.75-0.625 0-1.214-0.732v0.643h-1.196v-8.804h1.196v2.875q0.571-0.714 1.214-0.714 0.732 0 0.946 0.75 0.125 0.375 0.125 1.321zM22.071 22.875v0.161q0 0.518-0.036 0.768-0.054 0.393-0.268 0.714-0.482 0.714-1.429 0.714-0.929 0-1.446-0.679-0.375-0.482-0.375-1.536v-2.304q0-1.054 0.357-1.536 0.518-0.679 1.429-0.679t1.393 0.679q0.375 0.5 0.375 1.536v1.357h-2.375v1.161q0 0.911 0.607 0.911 0.429 0 0.536-0.464 0-0.018 0.009-0.125t0.009-0.295v-0.384h1.214zM14.018 8.161v2.786q0 0.911-0.571 0.911t-0.571-0.911v-2.786q0-0.929 0.571-0.929t0.571 0.929zM23.536 20.893q0-3.161-0.339-4.643-0.179-0.786-0.768-1.313t-1.357-0.616q-2.429-0.268-7.357-0.268-4.911 0-7.339 0.268-0.786 0.089-1.366 0.616t-0.759 1.313q-0.357 1.554-0.357 4.643 0 3.143 0.357 4.643 0.179 0.768 0.759 1.304t1.348 0.625q2.446 0.268 7.357 0.268t7.357-0.268q0.768-0.089 1.348-0.625t0.759-1.304q0.357-1.5 0.357-4.643zM10.054 9.268l1.607-5.286h-1.339l-0.911 3.482-0.946-3.482h-1.393l0.429 1.232t0.411 1.232q0.625 1.839 0.821 2.821v3.589h1.321v-3.589zM15.214 10.714v-2.321q0-1.036-0.375-1.554-0.518-0.679-1.393-0.679-0.911 0-1.393 0.679-0.375 0.518-0.375 1.554v2.321q0 1.036 0.375 1.554 0.482 0.679 1.393 0.679 0.875 0 1.393-0.679 0.375-0.482 0.375-1.554zM18.446 12.857h1.196v-6.607h-1.196v5.054q-0.393 0.554-0.75 0.554-0.268 0-0.286-0.286-0.018-0.036-0.018-0.464v-4.857h-1.196v5.232q0 0.661 0.107 0.982 0.196 0.482 0.768 0.482 0.643 0 1.375-0.804v0.714zM27.429 7.429v17.143q0 2.125-1.509 3.634t-3.634 1.509h-17.143q-2.125 0-3.634-1.509t-1.509-3.634v-17.143q0-2.125 1.509-3.634t3.634-1.509h17.143q2.125 0 3.634 1.509t1.509 3.634z"/> </symbol></svg>